<?xml version="1.0" standalone="no"?>
<!DOCTYPE svg PUBLIC "-//W3C//DTD SVG 20010904//EN"
 "http://www.w3.org/TR/2001/REC-SVG-20010904/DTD/svg10.dtd">
<svg version="1.0" xmlns="http://www.w3.org/2000/svg"
 width="260.000000pt" height="260.000000pt" viewBox="0 0 260.000000 260.000000"
 preserveAspectRatio="xMidYMid meet">
<metadata>
Created by potrace 1.11, written by Peter Selinger 2001-2013
</metadata>
<g transform="translate(0.000000,260.000000) scale(0.100000,-0.100000)"
fill="#000000" stroke="none">
<path d="M378 2573 c-21 -24 -38 -89 -27 -100 6 -6 1 -17 -13 -29 -23 -19 -23
-19 -6 2 25 29 6 44 -59 44 -40 0 -53 -4 -53 -15 0 -8 5 -15 11 -15 8 0 7 -6
-2 -17 -8 -10 -9 -14 -2 -10 8 5 11 -3 8 -30 -12 -138 -16 -375 -7 -369 7 4
10 -7 7 -31 -12 -138 -16 -375 -7 -369 7 4 10 -7 7 -31 -12 -138 -16 -375 -7
-369 7 4 10 -7 7 -31 -12 -138 -16 -375 -7 -369 7 4 10 -7 7 -31 -11 -133 -16
-375 -7 -369 9 5 7 -121 -3 -152 -2 -6 1 -12 8 -12 7 0 17 -10 22 -22 9 -20
19 -23 77 -26 66 -3 67 -3 75 -35 4 -18 8 -37 8 -43 0 -6 8 -22 18 -37 l17
-27 885 3 c487 1 885 -1 885 -6 0 -4 -401 -6 -892 -5 l-892 3 -13 25 c-8 16
-13 19 -13 9 0 -9 9 -26 19 -38 11 -13 22 -28 24 -34 5 -16 1759 -22 1788 -7
18 10 19 28 19 585 0 551 1 576 20 628 11 29 35 71 54 93 45 53 54 73 54 117
0 65 -75 128 -114 96 -12 -10 -14 38 -14 333 0 331 -1 344 -20 361 -11 9 -20
25 -20 35 0 14 -7 19 -27 19 -16 0 -49 3 -75 7 l-48 7 0 47 c0 46 -13 82 -25
71 -3 -4 -7 -238 -8 -520 l-2 -514 -2 445 c-3 404 -5 446 -20 458 -13 9 -14
12 -2 12 11 0 11 2 1 9 -11 7 -10 9 3 14 12 5 15 18 13 54 -2 27 -7 52 -13 56
-6 5 -3 7 8 3 9 -3 17 -1 17 4 0 6 -9 10 -21 10 -12 0 -17 4 -14 11 4 6 14 8
22 5 8 -3 11 -1 8 4 -4 6 -285 10 -755 10 -644 0 -750 -2 -750 -14 0 -19 20
-26 42 -15 10 6 19 5 23 -1 6 -9 -21 -15 -52 -11 -6 1 -14 -9 -16 -21 -2 -13
-5 -3 -6 22 -2 64 -19 118 -41 130 -30 16 -85 12 -102 -7z m100 -15 c17 -17
16 -72 0 -62 -8 5 -7 0 2 -11 14 -17 13 -17 -10 -10 -14 5 -35 9 -47 11 -12 1
-27 5 -32 9 -6 3 -11 -1 -11 -10 0 -9 -4 -14 -9 -10 -11 6 2 60 20 81 14 17
71 18 87 2z m-68 -97 c0 -6 -5 -13 -11 -16 -6 -4 -14 -17 -19 -29 l-9 -21 0
23 c-1 12 5 22 12 23 8 0 8 2 -2 6 -11 5 -11 7 0 14 18 11 29 11 29 0z m78 -6
c12 -11 -5 -10 -38 2 l-35 14 34 -6 c19 -3 37 -7 39 -10z m492 -6 c-14 -4 -61
-7 -105 -6 l-80 0 87 6 c47 3 90 9 94 13 4 4 12 4 18 1 6 -4 0 -10 -14 -14z
m400 0 c-14 -4 -61 -7 -105 -6 l-80 0 87 6 c47 3 90 9 94 13 4 4 12 4 18 1 6
-4 0 -10 -14 -14z m400 0 c-14 -4 -61 -7 -105 -6 l-80 0 87 6 c47 3 90 9 94
13 4 4 12 4 18 1 6 -4 0 -10 -14 -14z m-1430 -34 c-7 -9 -15 -13 -18 -10 -3 2
1 11 8 20 7 9 15 13 18 10 3 -2 -1 -11 -8 -20z m94 -3 c3 -5 -1 -9 -9 -9 -8 0
-15 4 -15 9 0 4 4 8 9 8 6 0 12 -4 15 -8z m1563 -49 c-3 -10 -5 -4 -5 12 0 17
2 24 5 18 2 -7 2 -21 0 -30z m-1637 17 c0 -5 -4 -10 -10 -10 -5 0 -10 5 -10
10 0 6 5 10 10 10 6 0 10 -4 10 -10z m157 -162 c-2 -29 -3 -8 -3 47 0 55 1 79
3 53 2 -26 2 -71 0 -100z m295 123 c-4 -10 -7 -11 -10 -3 -2 7 -11 12 -20 12
-12 0 -9 -6 10 -17 22 -14 26 -22 21 -45 -3 -17 -1 -28 5 -28 6 0 0 -11 -14
-25 -24 -24 -25 -28 -11 -48 9 -12 20 -21 25 -20 6 1 9 -5 8 -13 -3 -18 -34
-39 -43 -30 -4 3 -1 6 6 6 7 0 9 5 6 10 -4 7 -11 7 -18 2 -22 -16 -46 -22 -41
-9 2 7 -7 25 -21 41 l-25 29 4 -44 c2 -24 2 -37 0 -28 -3 9 -15 14 -32 13
l-27 -2 0 107 0 106 91 0 c76 0 91 -2 86 -14z m188 -8 c0 -13 -4 -23 -10 -23
-5 0 -10 -6 -10 -14 0 -8 -9 -14 -19 -13 -11 0 -17 5 -15 9 3 5 10 6 15 3 5
-4 9 -1 9 4 0 6 -16 11 -35 11 -29 0 -35 -4 -35 -20 0 -12 6 -20 13 -19 44 6
77 -2 77 -18 0 -15 2 -16 10 -3 6 10 6 16 0 18 -6 2 -10 8 -10 13 0 6 4 8 9 4
5 -3 11 0 14 7 2 8 3 7 3 -2 -1 -8 5 -21 14 -28 8 -8 9 -10 2 -7 -8 4 -19 -1
-27 -11 -9 -13 -26 -18 -56 -19 -33 0 -44 -4 -47 -17 -3 -13 7 -17 52 -20 31
-1 57 1 60 7 2 6 5 15 7 20 6 19 24 33 34 27 6 -3 3 2 -5 12 -21 27 -20 58 4
81 16 15 35 20 78 21 31 0 55 -4 52 -8 -3 -4 2 -8 11 -8 15 0 15 -1 1 -16 -9
-8 -14 -19 -11 -24 3 -4 -2 -14 -11 -21 -12 -10 -15 -10 -12 1 2 8 -2 14 -9
15 -6 0 -15 3 -19 8 -4 4 -16 7 -26 7 -24 0 -23 -26 2 -33 11 -3 20 0 20 6 0
6 9 1 20 -11 19 -20 33 -26 53 -23 4 0 7 -4 7 -9 0 -5 -5 -10 -11 -10 -6 0 -9
-9 -6 -19 3 -12 -3 -27 -14 -37 -21 -19 -25 -34 -8 -34 5 0 7 6 3 13 -5 8 -2
8 9 -2 9 -7 17 -19 16 -25 0 -7 -2 -6 -6 1 -3 10 -10 10 -25 2 -11 -6 -22 -8
-26 -5 -3 3 1 6 8 6 17 0 4 13 -16 16 -10 2 -14 -3 -10 -13 5 -13 4 -14 -8 -4
-11 9 -15 9 -19 -1 -3 -8 -6 -6 -6 6 -1 14 -6 17 -22 13 -12 -3 -18 -3 -15 0
3 3 -2 12 -12 19 -13 10 -15 17 -6 30 6 10 16 20 24 22 7 3 10 0 6 -7 -4 -6
-2 -11 3 -11 6 0 11 7 11 16 0 8 4 13 10 9 5 -3 6 -13 3 -21 -4 -12 0 -15 17
-12 13 1 25 8 27 13 4 14 -52 35 -76 28 -19 -5 -51 -58 -51 -85 0 -15 -37 -17
-60 -3 -9 5 -11 4 -6 -3 5 -9 -6 -10 -40 -5 -29 4 -45 2 -41 -3 3 -5 -3 -10
-13 -10 -14 0 -16 3 -8 13 13 16 3 43 -15 43 -23 0 -37 23 -26 40 8 12 9 11 7
-4 -2 -10 3 -21 11 -24 8 -2 11 -1 9 4 -3 5 -1 18 3 29 9 18 9 18 5 -2 -2 -13
0 -26 5 -29 5 -3 9 22 9 56 0 34 -4 59 -9 56 -5 -4 -4 5 2 19 13 26 25 30 105
30 47 0 52 -2 52 -22z m270 -59 c0 -41 3 -75 8 -75 37 -7 65 -3 72 11 4 8 8
42 8 74 0 52 2 61 21 67 12 5 21 4 21 -1 0 -6 7 -10 16 -10 9 0 12 5 8 13 -5
7 0 6 11 -3 10 -8 16 -10 12 -4 -4 8 4 11 26 10 37 -2 57 -12 57 -29 0 -6 -7
-2 -15 9 -9 10 -3 -7 12 -38 15 -32 30 -58 34 -58 10 0 39 87 31 94 -3 3 2 6
12 6 9 0 15 3 13 8 -3 4 10 7 28 8 32 1 34 -1 28 -28 -4 -20 -2 -28 8 -28 12
0 12 -2 1 -9 -10 -6 -13 -28 -10 -79 1 -38 0 -68 -3 -66 -3 2 -15 -3 -25 -11
-10 -8 -23 -14 -29 -15 -5 0 -4 4 4 9 10 7 12 14 5 23 -6 7 -9 32 -9 56 l1 42
-21 -42 c-27 -53 -41 -57 -62 -18 -38 68 -42 69 -39 11 3 -46 1 -54 -15 -58
-10 -3 -19 -10 -19 -16 0 -7 -4 -7 -12 1 -14 14 -32 16 -24 3 3 -4 -6 -6 -19
-3 -34 6 -42 22 -16 29 11 3 18 9 15 14 -3 5 0 9 5 9 20 0 11 -20 -11 -30 -19
-7 -17 -9 14 -7 l38 2 0 93 0 92 -27 -1 c-24 -2 -25 -2 -5 -6 12 -2 22 -8 22
-13 0 -5 -6 -7 -13 -4 -9 3 -13 -9 -15 -43 -1 -34 1 -44 8 -33 7 10 10 11 10
2 0 -7 -7 -15 -15 -18 -8 -3 -17 -15 -20 -25 -4 -11 -29 -31 -57 -45 -27 -14
-47 -21 -44 -15 4 5 -3 12 -14 16 -43 14 -60 52 -60 135 0 77 0 77 25 72 24
-4 25 -7 25 -78z m302 63 c6 -11 5 -23 -2 -34 -11 -17 -11 -17 -6 0 7 23 -4
53 -14 37 -5 -8 -9 -7 -13 3 -8 21 23 15 35 -6z m298 -6 c0 -17 -8 -20 -52
-23 -41 -2 -54 -7 -56 -20 -3 -14 3 -18 27 -18 34 0 96 33 96 52 0 6 5 13 10
15 6 2 11 -6 11 -17 0 -13 -9 -23 -23 -26 -17 -5 -23 -13 -23 -35 0 -24 -4
-29 -25 -29 -14 0 -25 -6 -25 -12 0 -8 -3 -9 -8 -3 -14 20 -42 17 -42 -5 0
-17 6 -20 50 -20 29 0 50 5 50 11 0 5 -6 7 -12 3 -10 -5 -10 -3 0 7 11 12 14
12 22 -1 5 -8 6 -18 4 -22 -3 -4 1 -8 8 -9 10 0 10 -2 1 -6 -7 -2 -13 -11 -13
-20 0 -10 6 -12 21 -8 19 6 20 5 9 -7 -14 -14 -52 -20 -44 -6 3 4 0 8 -5 8 -6
0 -11 -5 -11 -11 0 -8 -5 -7 -16 2 -12 10 -17 10 -23 0 -6 -10 -10 -8 -15 5
-5 13 -9 15 -18 6 -16 -16 -31 -15 -23 1 4 6 1 5 -7 -3 -7 -8 -24 -16 -38 -18
-15 -1 -20 1 -13 6 8 5 9 13 3 22 -6 8 -9 42 -8 75 l1 60 7 -55 c4 -30 8 -48
9 -40 1 10 4 11 9 3 4 -6 7 15 7 48 0 32 -3 59 -7 59 -5 0 -8 5 -8 11 0 5 5 7
12 3 7 -5 9 -2 5 8 -9 25 1 28 80 28 66 0 73 -2 73 -19z m140 -512 c0 -252 -3
-459 -7 -459 -5 0 -8 209 -8 464 0 255 3 462 8 459 4 -2 7 -211 7 -464z m-445
451 c3 -5 1 -10 -4 -10 -6 0 -11 5 -11 10 0 6 2 10 4 10 3 0 8 -4 11 -10z
m330 -40 c3 -5 2 -10 -4 -10 -5 0 -13 5 -16 10 -3 6 -2 10 4 10 5 0 13 -4 16
-10z m312 -22 c-3 -8 -6 -5 -6 6 -1 11 2 17 5 13 3 -3 4 -12 1 -19z m-1227 -4
c0 -2 -9 -4 -20 -4 -11 0 -20 4 -20 9 0 5 9 7 20 4 11 -3 20 -7 20 -9z m238
-25 c-3 -8 -7 -3 -11 10 -4 17 -3 21 5 13 5 -5 8 -16 6 -23z m-796 -18 c2 -17
1 -28 -4 -25 -8 5 -12 54 -4 54 2 0 6 -13 8 -29z m1174 14 c-3 -9 1 -18 10
-22 22 -8 -5 -25 -28 -17 -10 3 -18 1 -18 -4 0 -5 -13 -9 -30 -9 -16 0 -30 6
-30 12 0 8 17 11 51 9 36 -2 48 1 41 8 -10 10 -6 38 5 38 3 0 2 -7 -1 -15z
m-1146 -16 c0 -6 -4 -7 -10 -4 -5 3 -10 11 -10 16 0 6 5 7 10 4 6 -3 10 -11
10 -16z m1095 -8 c-6 -5 -25 10 -25 20 0 5 6 4 14 -3 8 -7 12 -15 11 -17z
m-319 -13 c0 -10 -1 -18 -3 -18 -1 0 -7 8 -12 18 -7 13 -6 19 2 19 7 0 13 -9
13 -19z m39 -6 c-3 -3 -11 0 -18 7 -9 10 -8 11 6 5 10 -3 15 -9 12 -12z m99 0
c2 -4 -5 -9 -17 -9 -17 -2 -19 0 -7 7 18 12 18 12 24 2z m-930 -28 c10 -25 -1
-29 -14 -5 -6 12 -7 21 -1 21 5 0 12 -7 15 -16z m89 -14 c-3 -11 -7 -20 -9
-20 -2 0 -4 9 -4 20 0 11 4 20 9 20 5 0 7 -9 4 -20z m-43 -25 c0 -5 -5 -3 -10
5 -5 8 -10 11 -10 5 -1 -21 -17 -35 -33 -29 -9 3 -17 14 -16 23 0 10 2 11 6 4
8 -21 30 -15 37 10 5 18 8 20 16 7 5 -8 10 -19 10 -25z m57 -27 c-3 -7 -5 -2
-5 12 0 14 2 19 5 13 2 -7 2 -19 0 -25z m-141 -29 c24 -15 24 -16 8 -30 -10
-8 -15 -9 -11 -3 4 6 -2 19 -13 29 -11 10 -19 28 -19 39 2 21 2 21 6 1 2 -12
15 -28 29 -36z m997 19 c11 9 78 12 251 10 l237 -3 0 -288 c-1 -185 3 -286 9
-282 6 3 10 1 10 -4 0 -6 -4 -11 -10 -11 -5 0 -10 -7 -10 -15 0 -8 -9 -15 -21
-15 -13 0 -18 -4 -13 -12 6 -10 5 -10 -7 -1 -18 15 -265 18 -274 3 -3 -5 -12
-10 -18 -10 -7 0 -6 4 3 10 10 7 -11 10 -67 10 l-83 0 -1 283 c-1 155 0 291 1
302 1 15 -1 17 -12 8 -9 -8 -16 -8 -25 2 -6 7 -9 16 -6 19 4 4 10 1 14 -6 6
-9 11 -9 22 0z m794 -170 c-2 -35 -3 -7 -3 62 0 69 1 97 3 63 2 -35 2 -91 0
-125z m20 0 c-2 -35 -3 -7 -3 62 0 69 1 97 3 63 2 -35 2 -91 0 -125z m-1697
168 c0 -2 -8 -10 -17 -17 -16 -13 -17 -12 -4 4 13 16 21 21 21 13z m1398 -21
c-1 -14 -6 -25 -10 -25 -10 0 -10 13 -2 34 9 23 14 19 12 -9z m-1383 -5 c-3
-5 -11 -10 -16 -10 -6 0 -7 5 -4 10 3 6 11 10 16 10 6 0 7 -4 4 -10z m21 -13
c0 -14 -7 -23 -17 -23 -15 0 -15 2 0 23 20 28 19 28 17 0z m-69 -2 c8 -9 13
-18 11 -21 -3 -2 -11 2 -17 10 -7 8 -20 12 -29 9 -15 -4 -15 -3 -2 6 19 14 19
14 37 -4z m908 -23 c-6 -7 -34 11 -29 19 3 5 11 3 19 -4 7 -6 12 -13 10 -15z
m-1029 -6 c8 -8 10 -17 5 -20 -5 -4 -11 0 -14 6 -2 7 -8 9 -13 5 -5 -4 -3 -12
4 -16 10 -6 10 -10 -2 -20 -11 -9 -16 -9 -22 0 -4 8 -3 9 4 5 7 -4 12 -3 12 3
0 5 -4 13 -10 16 -6 4 -5 11 3 20 15 18 16 18 33 1z m784 -6 c0 -5 -2 -10 -4
-10 -3 0 -8 5 -11 10 -3 6 -1 10 4 10 6 0 11 -4 11 -10z m-10 -56 c0 -3 -7
-12 -16 -21 -8 -9 -13 -21 -11 -27 3 -8 -93 -10 -356 -8 -286 2 -362 0 -369
-10 -6 -10 -8 -10 -8 2 0 8 -8 24 -16 35 -15 20 -15 20 -30 1 -8 -11 -14 -16
-14 -10 1 5 13 24 28 41 l28 33 357 0 c207 1 357 5 357 10 0 5 11 -2 25 -16
14 -14 25 -27 25 -30z m-770 -53 c-1 -3 -8 -17 -16 -31 -8 -14 -13 -18 -11
-10 2 8 -3 21 -12 28 -14 11 -13 12 9 6 22 -6 23 -5 11 10 -12 14 -12 16 3 10
9 -3 16 -9 16 -13z m30 -35 c0 -2 -7 -7 -16 -10 -8 -3 -12 -2 -9 4 6 10 25 14
25 6z m654 -7 c-4 -7 5 -10 27 -7 33 3 33 2 37 -39 6 -71 1 -72 -394 -73
l-339 0 -18 30 c-20 34 -33 38 -40 13 -4 -16 -5 -16 -6 0 -1 11 7 21 19 24 11
3 20 11 20 18 0 7 7 16 16 19 9 3 161 6 339 6 205 0 326 4 330 10 3 6 8 10 11
10 3 0 2 -5 -2 -11z m-689 -107 c-3 -3 -11 0 -18 7 -9 10 -8 11 6 5 10 -3 15
-9 12 -12z m5 -26 c0 -8 7 -17 16 -20 9 -3 172 -6 363 -6 257 0 350 -3 359
-12 14 -14 16 -64 2 -73 -5 -3 -173 -6 -372 -5 l-363 0 -18 25 c-11 14 -24 22
-30 18 -7 -4 -6 1 2 11 11 13 16 14 23 4 7 -9 8 -6 5 10 -4 18 -2 22 9 18 9
-3 12 -1 9 4 -3 6 -14 10 -23 10 -15 0 -15 2 -2 10 13 8 12 10 -2 10 -10 0
-18 -5 -18 -12 0 -6 -3 -9 -6 -5 -10 10 6 27 27 27 10 0 19 -6 19 -14z m720 4
c0 -5 -4 -10 -10 -10 -5 0 -10 5 -10 10 0 6 5 10 10 10 6 0 10 -4 10 -10z
m1120 -70 l3 45 6 -45 c4 -25 9 -50 13 -55 4 -7 -4 -11 -20 -12 -15 0 -19 1
-9 4 9 2 17 8 17 13 0 4 -8 7 -17 6 -20 -3 -30 -35 -15 -45 7 -4 4 -15 -7 -29
-16 -21 -17 -22 -17 -3 0 11 4 17 8 15 4 -3 5 8 2 24 -4 17 -1 32 5 36 6 4 12
26 13 49 l1 42 7 -45 7 -45 3 45z m-298 -2 c-8 -8 -9 -4 -5 13 4 13 8 18 11
10 2 -7 -1 -18 -6 -23z m5 -40 c2 -18 0 -20 -7 -8 -12 18 -13 30 -2 30 4 0 9
-10 9 -22z m-530 -45 c-3 -10 -5 -4 -5 12 0 17 2 24 5 18 2 -7 2 -21 0 -30z
m-1037 2 c-7 -8 -17 -15 -22 -15 -11 0 14 29 26 30 5 0 3 -7 -4 -15z m378 3
l317 -3 -325 -5 -325 -5 328 -3 c180 -1 327 -5 327 -9 0 -5 -148 -8 -329 -8
-181 0 -327 3 -324 8 6 10 -5 9 -29 -4 -11 -6 -22 -8 -25 -5 -4 3 8 11 26 17
25 9 30 14 19 21 -10 7 -8 8 5 4 10 -3 161 -7 335 -8z m382 -8 c-8 -5 -24 -9
-35 -9 l-20 0 20 9 c11 5 27 9 35 9 13 1 13 0 0 -9z m257 -32 c-3 -8 -6 -5 -6
6 -1 11 2 17 5 13 3 -3 4 -12 1 -19z m769 -26 c-17 -16 -18 -16 -5 5 7 12 15
20 18 17 3 -2 -3 -12 -13 -22z m-736 8 c0 -5 -5 -10 -11 -10 -5 0 -7 5 -4 10
3 6 8 10 11 10 2 0 4 -4 4 -10z m-1 -44 c10 -12 8 -13 -8 -9 -12 3 -18 9 -15
14 7 12 10 11 23 -5z m641 -70 c0 -3 -4 -8 -10 -11 -5 -3 -10 -1 -10 4 0 6 5
11 10 11 6 0 10 -2 10 -4z m-35 -38 c19 17 19 16 1 -5 -19 -24 -43 -22 -43 4
0 14 1 14 12 0 11 -15 13 -15 30 1z m-35 -43 c0 -12 -29 -3 -34 10 -4 13 -2
14 14 5 11 -6 20 -13 20 -15z m-846 -55 c420 0 770 -2 779 -6 9 -3 14 -11 12
-17 -2 -7 -6 -24 -9 -39 -4 -19 -13 -28 -26 -28 -11 0 -20 -5 -20 -11 0 -6 8
-8 18 -5 14 5 14 4 -2 -9 -11 -8 -17 -15 -13 -15 15 0 -22 -56 -57 -87 -35
-33 -53 -42 -41 -23 4 7 -231 10 -698 10 -634 0 -705 2 -711 16 -10 26 -7 51
9 64 17 14 20 30 4 30 -5 0 -8 -3 -6 -7 3 -5 -1 -14 -9 -20 -8 -8 -15 -9 -19
-3 -3 6 -2 10 3 10 5 0 12 9 15 20 4 17 2 20 -16 16 -12 -3 -16 -3 -9 0 6 3 9
10 6 16 -4 6 3 5 15 -1 12 -7 27 -21 34 -32 12 -19 25 -19 732 -19 475 1 723
4 731 11 7 6 10 17 7 25 -4 12 -113 14 -744 14 -660 0 -740 2 -746 16 -3 8
-12 13 -20 10 -8 -4 -11 -1 -7 5 4 6 0 16 -7 21 -11 7 -9 9 6 5 15 -3 21 1 22
14 1 12 -3 16 -14 12 -13 -5 -13 -3 -1 16 10 17 14 18 16 6 3 -14 86 -15 766
-15z m756 18 c0 -11 -12 -10 -30 2 -12 7 -10 9 8 7 12 0 22 -5 22 -9z m30 -3
c7 -9 8 -15 2 -15 -5 0 -12 7 -16 15 -3 8 -4 15 -2 15 2 0 9 -7 16 -15z m307
-217 c-3 -8 -6 -5 -6 6 -1 11 2 17 5 13 3 -3 4 -12 1 -19z m-1853 -40 c7 -5 8
-8 0 -8 -5 0 -19 7 -30 16 -10 8 -13 13 -6 9 6 -3 12 0 13 7 0 9 2 8 6 -2 3
-8 11 -18 17 -22z m1326 -13 c-11 -13 -67 -15 -414 -13 l-401 3 400 2 c246 2
403 7 409 13 16 16 20 12 6 -5z m38 -5 c-7 -11 -16 -20 -20 -20 -5 0 -3 9 4
20 7 11 16 20 20 20 5 0 3 -9 -4 -20z m27 -10 c-3 -5 -11 -10 -16 -10 -6 0 -7
5 -4 10 3 6 11 10 16 10 6 0 7 -4 4 -10z m-30 -22 c5 4 5 1 1 -6 -4 -7 -12 -9
-18 -6 -8 5 -9 1 -5 -10 4 -9 3 -15 -2 -12 -5 3 -11 15 -14 26 -4 16 -2 18 13
10 9 -5 21 -6 25 -2z m-837 -43 l-3 -45 360 -2 c198 -1 317 -4 265 -6 -167 -6
-1160 10 -1154 19 3 5 0 9 -7 9 -10 0 -10 3 -1 12 10 10 7 15 -10 26 l-23 13
25 -6 c24 -6 24 -5 6 9 -16 13 12 15 264 16 l282 1 -4 -46z m19 23 c-3 -8 -6
-5 -6 6 -1 11 2 17 5 13 3 -3 4 -12 1 -19z m29 -34 c-4 -14 -9 -24 -12 -21 -3
2 -2 17 2 31 3 15 9 25 11 22 3 -3 2 -17 -1 -32z m1097 -585 c-5 -5 -6 128 -3
294 l5 302 3 -294 c1 -162 -1 -298 -5 -302z m-392 544 c13 -16 12 -17 -3 -4
-17 13 -22 21 -14 21 2 0 10 -8 17 -17z m556 -165 c-2 -35 -3 -7 -3 62 0 69 1
97 3 63 2 -35 2 -91 0 -125z m20 0 c-2 -35 -3 -7 -3 62 0 69 1 97 3 63 2 -35
2 -91 0 -125z m-1822 144 c-6 -7 -65 9 -65 17 0 5 15 3 34 -3 19 -6 33 -12 31
-14z m1226 -9 c13 -16 12 -17 -3 -4 -17 13 -22 21 -14 21 2 0 10 -8 17 -17z
m-776 -3 c3 -5 -1 -10 -9 -10 -9 0 -16 5 -16 10 0 6 4 10 9 10 6 0 13 -4 16
-10z m-478 -6 c-3 -3 -12 -4 -19 -1 -8 3 -5 6 6 6 11 1 17 -2 13 -5z m1633 2
c0 -2 -7 -6 -15 -10 -8 -3 -15 -1 -15 4 0 6 7 10 15 10 8 0 15 -2 15 -4z
m-392 -27 c1 -9 -14 -33 -35 -55 -34 -34 -44 -39 -78 -37 -22 1 -284 2 -582 3
l-542 0 -17 25 c-15 23 -15 27 0 50 l16 25 258 3 c141 1 419 2 617 2 320 0
360 -2 363 -16z m296 -46 c0 -25 4 -43 10 -44 16 -1 -26 -18 -44 -18 -9 0 -7
4 5 8 15 7 6 10 -37 16 -32 4 -58 11 -58 15 0 4 13 22 30 40 23 25 36 31 62
28 32 -3 33 -5 32 -45z m113 -255 c-1 -57 -3 -11 -3 102 0 113 2 159 3 103 2
-57 2 -149 0 -205z m-575 200 c-9 -9 -1072 -15 -1072 -6 0 4 -12 8 -27 10 -16
2 227 3 539 3 312 0 564 -3 560 -7z m28 -12 c0 -3 -4 -8 -10 -11 -5 -3 -10 -1
-10 4 0 6 5 11 10 11 6 0 10 -2 10 -4z m435 -13 c-14 -14 -15 -18 -4 -27 8 -6
14 -28 15 -48 l0 -38 -132 3 c-73 1 -136 6 -140 10 -4 4 6 22 24 40 29 29 38
32 107 35 56 3 75 8 75 18 0 8 4 14 10 14 5 0 7 -7 4 -15 -9 -22 14 -18 26 5
6 11 15 20 21 20 6 0 3 -8 -6 -17z m-420 -2 c-3 -5 -1 -12 5 -16 14 -9 -47
-95 -68 -95 -774 -4 -1052 -4 -1052 3 0 4 -9 16 -20 27 l-20 20 21 21 c17 17
19 23 8 30 -9 6 -10 9 -2 9 6 0 15 -4 18 -10 7 -12 1106 -14 1104 -2 -2 12 1
22 7 22 3 0 3 -4 -1 -9z m-1135 -25 c0 -3 -4 -8 -10 -11 -5 -3 -10 -1 -10 4 0
6 5 11 10 11 6 0 10 -2 10 -4z m7 -90 c-3 -8 -1 -17 6 -20 9 -3 9 -5 0 -5 -15
-1 -26 16 -18 29 9 15 18 12 12 -4z m529 -24 c-264 -1 -483 1 -487 5 -5 5 211
6 479 3 l487 -5 -479 -3z m507 0 c-8 -5 -9 -13 -3 -22 16 -26 12 -90 -6 -90
-8 0 -13 -3 -11 -7 3 -5 -224 -8 -503 -8 -279 0 -506 3 -503 8 2 4 -2 10 -11
13 -9 3 -12 12 -9 22 5 11 2 14 -8 10 -10 -4 -15 1 -15 12 0 10 5 16 10 13 5
-4 7 1 3 10 -4 10 -1 17 6 17 7 0 243 0 524 0 455 0 512 1 507 15 -4 10 0 15
12 15 13 0 15 -3 7 -8z m804 -235 c-2 -34 -3 -6 -3 63 0 69 1 97 3 63 2 -35 2
-91 0 -126z m20 0 c-2 -34 -3 -6 -3 63 0 69 1 97 3 63 2 -35 2 -91 0 -126z
m-222 19 c11 -2 -326 -3 -750 -2 -635 1 -693 2 -330 6 437 5 1042 3 1080 -4z
m-1685 -6 c0 -5 -5 -10 -11 -10 -5 0 -7 5 -4 10 3 6 8 10 11 10 2 0 4 -4 4
-10z m1845 -152 c6 -4 -28 -8 -74 -8 -46 0 -82 2 -79 5 3 3 31 6 62 6 31 1 59
5 62 11 3 5 9 6 13 1 3 -4 11 -11 16 -15z m-1680 -9 c-4 -5 -12 -9 -18 -8 -9
0 -8 2 1 6 6 2 9 10 6 15 -4 7 -2 8 5 4 6 -4 9 -12 6 -17z m448 4 c-24 -2 -62
-2 -85 0 -24 2 -5 4 42 4 47 0 66 -2 43 -4z m400 0 c-24 -2 -62 -2 -85 0 -24
2 -5 4 42 4 47 0 66 -2 43 -4z m400 0 c-24 -2 -62 -2 -85 0 -24 2 -5 4 42 4
47 0 66 -2 43 -4z m472 -13 c-3 -5 -14 -10 -23 -9 -14 0 -13 2 3 9 27 11 27
11 20 0z"/>
<path d="M700 2285 c0 -23 8 -28 38 -24 4 1 6 5 4 11 -1 5 2 7 8 3 6 -3 8 -11
5 -16 -4 -5 -1 -9 4 -9 6 0 11 7 11 15 0 24 -4 30 -17 29 -7 -1 -13 2 -13 7 0
5 -9 9 -20 9 -15 0 -20 -7 -20 -25z"/>
<path d="M732 2181 c7 -11 16 -17 20 -14 10 5 -10 33 -23 33 -5 0 -4 -9 3 -19z"/>
<path d="M760 2150 c0 -5 5 -10 11 -10 5 0 7 5 4 10 -3 6 -8 10 -11 10 -2 0
-4 -4 -4 -10z"/>
<path d="M1700 2166 c0 -2 6 -9 13 -15 10 -8 14 -7 14 4 0 8 -6 15 -14 15 -7
0 -13 -2 -13 -4z"/>
<path d="M1600 1922 c-49 -24 -69 -83 -52 -148 7 -26 22 -59 32 -74 11 -16 20
-35 20 -44 0 -39 94 -46 106 -8 3 9 19 44 35 76 16 32 29 72 29 88 0 46 -28
95 -65 112 -42 20 -62 20 -105 -2z"/>
<path d="M1535 1611 c-51 -23 -95 -68 -95 -96 0 -51 69 -75 215 -75 193 0 264
50 183 127 -76 71 -102 70 -124 -7 -9 -33 -20 -60 -24 -60 -5 0 -13 14 -19 32
-8 24 -8 33 0 39 16 9 4 39 -16 39 -19 0 -30 -26 -18 -43 6 -7 5 -25 -3 -47
-14 -39 -14 -38 -43 55 l-17 54 -39 -18z"/>
<path d="M347 450 c-3 -11 -3 -20 -1 -20 2 0 8 9 14 20 6 11 7 20 2 20 -6 0
-12 -9 -15 -20z"/>
</g>
</svg>
